<?xml version="1.0" encoding="utf-8"?>
<!-- Generator: Adobe Illustrator 16.0.0, SVG Export Plug-In . SVG Version: 6.00 Build 0)  -->
<!DOCTYPE svg PUBLIC "-//W3C//DTD SVG 1.1//EN" "http://www.w3.org/Graphics/SVG/1.1/DTD/svg11.dtd">
<svg version="1.1"
	 id="svg2" sodipodi:version="0.32" sodipodi:docbase="C:\Documents and Settings\Brittany Boyer\My Documents\Pictures\Work\Wikimedia\Clean up\Convert to SVG" inkscape:version="0.44.1" sodipodi:docname="Cquote1.svg" xmlns:dc="http://purl.org/dc/elements/1.1/" xmlns:cc="http://web.resource.org/cc/" xmlns:rdf="http://www.w3.org/1999/02/22-rdf-syntax-ns#" xmlns:svg="http://www.w3.org/2000/svg" xmlns:sodipodi="http://sodipodi.sourceforge.net/DTD/sodipodi-0.dtd" xmlns:inkscape="http://www.inkscape.org/namespaces/inkscape"
	 xmlns="http://www.w3.org/2000/svg" xmlns:xlink="http://www.w3.org/1999/xlink" x="0px" y="0px" width="600px" height="350px"
	 viewBox="340 225 600 350" enable-background="new 340 225 600 350" xml:space="preserve">
<sodipodi:namedview  inkscape:window-width="853" inkscape:pageshadow="2" inkscape:current-layer="svg2" inkscape:pageopacity="0.0" inkscape:window-height="573" inkscape:window-x="176" inkscape:window-y="232" id="base" gridtolerance="10.0" guidetolerance="10.0" objecttolerance="10.0" borderopacity="1.0" bordercolor="#666666" pagecolor="#ffffff" inkscape:zoom="6.2833333" inkscape:cx="45.841389" inkscape:cy="15.697489">
	</sodipodi:namedview>
<path id="path1873" sodipodi:nodetypes="cssccsc" opacity="0.3" fill="#79AB7D" d="M437.488,357.91
	c-19.169-21.425-6.014-59.012,10.148-73.295c13.531-12.403,36.083-22.552,38.339-18.793c3.383,5.638-9.773,9.397-19.921,18.417
	c-12.403,13.531-16.538,19.545,0.752,27.063c18.417,8.269,18.793,16.538,19.545,27.063
	C487.479,364.299,456.282,376.327,437.488,357.91z"/>
<path id="path1875" sodipodi:nodetypes="cssccsc" opacity="0.3" fill="#79AB7D" d="M365.321,357.534
	c-19.169-21.425-6.014-59.012,10.148-73.295c13.531-12.403,36.083-22.552,38.339-18.793c3.383,5.638-9.772,9.397-19.921,18.417
	c-12.404,13.532-16.539,19.545,0.751,27.063c18.417,8.269,18.793,16.538,19.545,27.063
	C415.312,363.923,384.115,375.951,365.321,357.534z"/>
</svg>
