<svg height="511pt" viewBox="0 -36 511.9978 511" width="511pt" xmlns="http://www.w3.org/2000/svg"><path d="m478.617188 3.027344c-.125-.023438-.253907-.042969-.378907-.0625-39.042969-5.128906-75.40625-2.222656-105.164062 8.402344-27.640625 9.871093-48.945313 25.910156-61.613281 46.386718-15.859376 25.632813-16.261719 54.917969-1.441407 81.46875l-24.789062 16.539063v-99.664063c0-16.082031-13.113281-29.167968-29.230469-29.167968s-29.230469 13.085937-29.230469 29.167968v103.507813l-24.789062-16.539063c14.8125-26.558594 14.402343-55.851562-1.460938-81.484375-12.671875-20.46875-33.972656-36.507812-61.609375-46.375-29.75-10.621093-66.109375-13.527343-105.148437-8.394531-.125.015625-.253907.035156-.378907.058594-24.875 4.574218-35.9375 18.789062-32.886718 42.25.015625.125.035156.246094.058594.371094 5.875 32.429687 21.1875 63.875 43.121093 88.542968 21.113281 23.746094 46.765625 39.800782 72.238281 45.210938 6.390626 1.355468 12.609376 2.027344 18.636719 2.027344 23.496094-.003907 43.960938-10.210938 59.171875-29.714844l33.046875 22.050781v108.492187c-12.148437 4.929688-23.015625 12.867188-31.417969 23.21875-1.480468-.09375-2.972656-.144531-4.46875-.144531-36.070312 0-65.808593 27.570313-69.144531 62.691407-27.019531 4.59375-47.921875 26.554687-51.214843 53.65625h-17.953126c-4.136718 0-7.488281 3.351562-7.488281 7.488281s3.351563 7.488281 7.488281 7.488281h400.539063c4.132813 0 7.488281-3.351562 7.488281-7.488281 0-4.132813-3.355468-7.488281-7.488281-7.488281h-17.953125c-3.292969-27.101563-24.195312-49.0625-51.214844-53.65625-3.269531-34.425782-31.90625-61.59375-67.007812-62.65625-8.46875-10.390626-19.449219-18.339844-31.703125-23.242188v-38.503906c0-4.132813-3.351563-7.488282-7.488281-7.488282-4.132813 0-7.484376 3.355469-7.484376 7.488282v34.136718c-9.390624-1.703124-19.132812-1.675781-28.515624.070313v-108.085937c0-.007813 0-.019532 0-.03125v-117.457032c0-7.824218 6.394531-14.191406 14.257812-14.191406 7.859375 0 14.253906 6.367188 14.253906 14.191406v113.613282.03125 41.515624c0 4.132813 3.351563 7.488282 7.488282 7.488282 4.136718 0 7.488281-3.355469 7.488281-7.488282v-37.492187l33.042969-22.050781c15.214843 19.503906 35.675781 29.710937 59.171874 29.710937 6.027344 0 12.25-.667969 18.636719-2.027343 25.472657-5.40625 51.128907-21.460938 72.242188-45.210938 21.929687-24.667969 37.242187-56.109375 43.121093-88.542969.019532-.121093.039063-.246093.058594-.367187 3.050782-23.460938-8.011718-37.675782-32.886718-42.25-.125-.023438 24.875 4.574218 0 0zm-359.59375 165.570312c-41.136719-8.734375-91.433594-54.304687-103.703126-121.589844-1.941406-15.320312 3.65625-22.21875 20.585938-25.375 83.394531-10.902343 133.136719 17.546876 151.878906 47.832032 12.648438 20.4375 13.152344 43.832031 1.6875 65.257812l-21.835937-14.574218-3.578125-34.65625c-.425782-4.117188-4.113282-7.105469-8.21875-6.679688-4.113282.421875-7.101563 4.101562-6.679688 8.214844l2.308594 22.332031-29.644531-19.78125-2.785157-27.039063c-.425781-4.113281-4.101562-7.109374-8.214843-6.679687-4.113281.421875-7.105469 4.101563-6.683594 8.214844l1.515625 14.71875-20.046875-13.375c-3.4375-2.296875-8.085937-1.367188-10.382813 2.070312-2.292968 3.441407-1.367187 8.089844 2.074219 10.386719l19.53125 13.035156-11.984375 3.210938c-3.996094 1.070312-6.367187 5.175781-5.296875 9.171875.898438 3.34375 3.921875 5.550781 7.226563 5.550781.644531 0 1.296875-.082031 1.945312-.257812l24.6875-6.613282 29.222656 19.5-18.921874 5.070313c-3.992188 1.074219-6.363282 5.179687-5.292969 9.171875.898437 3.34375 3.921875 5.550781 7.226562 5.550781.640625 0 1.296875-.082031 1.945313-.257813l31.617187-8.476562 22.023438 14.695312c-19.445313 24.261719-44.277344 25.175782-62.207031 21.371094zm188.210937 152.53125c1.496094 2.035156 3.914063 3.171875 6.4375 3.039063.375-.019531.746094-.019531 1.125-.015625 30.039063 0 54.480469 24.359375 54.480469 54.304687v.109375c0 3.964844 3.085937 7.238282 7.039062 7.476563 22.3125 1.339843 40.28125 18.097656 43.730469 39.480469h-334.417969c3.449219-21.382813 21.421875-38.136719 43.734375-39.480469 3.953125-.238281 7.035157-3.511719 7.035157-7.476563v-.109375c0-29.945312 24.441406-54.304687 54.484374-54.304687 2.335938 0 4.660157.148437 6.90625.441406 2.726563.359375 5.433594-.804688 7.042969-3.039062 10.625-14.707032 27.121094-24.101563 45.011719-25.910157 3.429688-.339843 6.871094-.40625 10.308594-.191406 18.605468 1.183594 35.984375 10.589844 47.082031 25.675781 1.496094 2.035156-11.097656-15.085937 0 0zm189.445313-277.964844c-12.269532 67.28125-62.566407 112.855469-103.703126 121.589844-17.929687 3.800782-42.761718 2.886719-62.210937-21.371094l22.023437-14.695312 31.621094 8.476562c.648438.175782 1.300782.257813 1.941406.257813 3.304688 0 6.332032-2.207031 7.226563-5.550781 1.070313-3.996094-1.296875-8.101563-5.292969-9.171875l-18.921875-5.074219 29.222657-19.5 24.691406 6.617188c.648437.175781 1.300781.257812 1.941406.257812 3.304688 0 6.332031-2.207031 7.226562-5.550781 1.070313-3.996094-1.300781-8.101563-5.292968-9.171875l-11.988282-3.214844 19.535157-13.03125c3.441406-2.296875 4.367187-6.945312 2.074219-10.386719-2.296876-3.441406-6.945313-4.367187-10.386719-2.074219l-20.046875 13.378907 1.515625-14.71875c.425781-4.113281-2.566407-7.792969-6.679688-8.214844-4.101562-.421875-7.792969 2.566406-8.214843 6.679687l-2.785157 27.039063-29.644531 19.78125 2.304688-22.332031c.425781-4.113282-2.566407-7.792969-6.679688-8.214844-4.117188-.425781-7.789062 2.566406-8.214844 6.675781l-3.578125 34.660157-21.839843 14.574218c-11.46875-21.417968-10.972657-44.8125 1.667968-65.246094 18.742188-30.292968 68.484375-58.75 151.898438-47.84375 16.933594 3.15625 22.53125 10.054688 20.589844 25.375zm0 0"/></svg>