<svg height="512pt" viewBox="-10 0 511 512" width="512pt" xmlns="http://www.w3.org/2000/svg"><path d="m178.097656 184.867188c1.082032.546874 2.234375.804687 3.367188.804687 2.742187 0 5.382812-1.511719 6.699218-4.125 1.28125-2.542969 6.953126-5.285156 13.359376-5.316406 2.648437.03125 9.074218.488281 11.59375 5.378906 1.898437 3.679687 6.421874 5.125 10.101562 3.226563 3.679688-1.894532 5.125-6.417969 3.226562-10.097657-4.363281-8.460937-13.632812-13.5-24.816406-13.5-.058594 0-.117187 0-.175781 0-9.902344.046875-21.988281 4.257813-26.675781 13.5625-1.863282 3.695313-.378906 8.207031 3.320312 10.066407zm0 0"/><path d="m268.136719 184.875c1.078125.539062 2.222656.796875 3.351562.796875 2.75 0 5.394531-1.515625 6.710938-4.140625 1.097656-2.191406 6.328125-5.253906 13.285156-5.300781 2.679687-.019531 9.121094.472656 11.664063 5.386719 1.902343 3.679687 6.425781 5.117187 10.101562 3.214843 3.679688-1.902343 5.117188-6.425781 3.214844-10.105469-4.410156-8.519531-13.769532-13.601562-25.078125-13.488281-9.882813.066407-21.9375 4.289063-26.59375 13.578125-1.855469 3.699219-.355469 8.203125 3.34375 10.058594zm0 0"/><path d="m419.625 323.425781-57.976562-28.765625-26.824219-32.699218c6.34375-7.242188 11.808593-15.324219 16.265625-24.09375 7.851562-15.449219 13.125-32.230469 15.160156-47.757813 6.738281-2.34375 16.859375-6.941406 26.542969-17.804687.003906-.007813.007812-.015626.011719-.019532 26.488281-29.5625 25.167968-52.78125 19.394531-67.058594-8.972657-22.1875-33.53125-37.828124-63.441407-48.085937-9.347656-16.539063-23.25-30.527344-40.382812-40.582031-18.464844-10.832032-39.859375-16.558594-61.871094-16.558594-22 0-43.390625 5.726562-61.859375 16.558594-17.175781 10.074218-31.097656 24.097656-40.445312 40.675781-29.546875 10.140625-53.992188 25.546875-63.15625 47.429687-6.023438 14.375-7.582031 37.777344 19.15625 67.621094.007812.003906.011719.011719.015625.019532 9.679687 10.863281 19.804687 15.460937 26.539062 17.804687 2.039063 15.527344 7.3125 32.308594 15.164063 47.753906 4.457031 8.773438 9.921875 16.855469 16.261719 24.097657l-26.820313 32.699218-57.980469 28.765625c-46.625 23.148438-75.816406 85.335938-72.644531 154.746094 1.101563 24.027344 9.445313 33.828125 28.796875 33.828125h438.589844c5.304687 0 22.726562-2.4375 24.152344-33.828125 3.167968-69.410156-26.023438-131.597656-72.648438-154.746094zm-350.410156 173.582031h-39.683594c-7.78125 0-12.925781 0-13.820312-19.519531-2.644532-57.824219 18.515624-109.800781 53.503906-134.1875zm277.667968-196.707031-31.917968 33.679688c-2.761719 2.300781-7.976563 5.75-13.804688 4.960937-4.449218-.605468-8.570312-3.6875-12.246094-9.152344l-20.460937-30.488281c13.351563-2.445312 26.164063-7.105469 37.808594-13.839843 6.398437-3.699219 12.382812-8.015626 17.90625-12.859376zm20.320313-126.804687v-28.945313c5.800781 5.96875 9.910156 12.761719 11.855469 20.425781-4.132813 4.046876-8.195313 6.699219-11.855469 8.519532zm-272.332031-63.042969c6.054687-14.449219 22.816406-27.253906 48.472656-37.023437 24.441406-9.308594 55.960938-15.273438 88.746094-16.804688 4.136718-.191406 7.332031-3.699219 7.136718-7.835938-.191406-4.136718-3.714843-7.355468-7.835937-7.140624-20.527344.957031-43.042969 3.828124-64.375 8.980468 18.769531-22.089844 48.171875-35.636718 79.488281-35.636718 31.273438 0 60.640625 13.511718 79.414063 35.550781-18.070313-4.347657-37.050781-7.058594-55.085938-8.347657l-5.441406-.339843c-4.132813-.253907-7.695313 2.882812-7.949219 7.015625-.261718 4.132812 2.878906 7.691406 7.011719 7.949218l5.375.335938c65.75 4.6875 117.378906 26.265625 128.472656 53.691406 4.914063 12.148438 2.179688 25.800782-8.117187 40.695313-18.816406-41.082031-85.285156-56.019531-141.59375-56.019531-.679688 0-1.363282.003906-2.039063.007812-.679687-.003906-1.355469-.007812-2.039062-.007812-56.390625 0-122.871094 14.941406-141.6875 56.019531-10.40625-15.054688-13.085938-28.835938-7.953125-41.089844zm243.683594 15.605469c-73.011719 14.855468-146.402344 5.992187-183.019532-.453125 24.777344-10.269531 57.25-15.089844 89.011719-15.089844.667969 0 1.339844.003906 2.003906.007813 32.785157-.210938 66.582031 4.734374 92.003907 15.535156zm-212.75 47.4375c-3.660157-1.820313-7.722657-4.472656-11.855469-8.519532 1.945312-7.671874 6.058593-14.476562 11.871093-20.449218zm29.480468 57.578125c-9.207031-18.113281-14.488281-38.054688-14.488281-54.710938l.019531-38.277343c20.070313 4.042968 62.058594 11.054687 111.910156 11.054687 31.238282 0 65.558594-2.773437 99.484376-10.738281v37.957031c0 16.660156-5.28125 36.601563-14.488282 54.714844-4.738281 9.332031-10.6875 17.636719-17.613281 24.804687-.425781.351563-.800781.742188-1.128906 1.15625-16.65625 16.691406-38.78125 26.898438-63.476563 28.898438-.390625 0-.78125.039062-1.167968.097656-2.585938.179688-5.195313.28125-7.832032.28125-2.640625 0-5.257812-.101562-7.847656-.28125-.375-.058594-.753906-.09375-1.128906-.09375-24.707032-1.996094-46.839844-12.207031-63.503906-28.902344-.324219-.414062-.695313-.804687-1.121094-1.152344-6.929688-7.171874-12.878906-15.480468-17.617188-24.808593zm13.554688 41.53125c5.523437 4.839843 11.503906 9.15625 17.902344 12.855469 11.648437 6.738281 24.460937 11.394531 37.8125 13.839843l-20.457032 30.484375c-3.679687 5.472656-7.804687 8.554688-12.257812 9.15625-5.824219.785156-11.023438-2.660156-13.765625-4.957031l-31.949219-33.683594zm239.957031 224.402343h-324.589844v-162.21875l44.429688-22.042968v93.5625c0 9.289062 6.898437 14.300781 13.390625 14.300781h91.101562c4.140625 0 7.496094-3.355469 7.496094-7.496094s-3.355469-7.496093-7.496094-7.496093h-89.5v-86.160157l23.84375 25.140625c.175782.1875.363282.363282.554688.527344 6.789062 5.828125 14.515625 8.925781 22.117187 8.925781 1.242188 0 2.480469-.085937 3.707031-.25 6.105469-.828125 14.996094-4.214843 22.691407-15.65625l24.804687-36.960937c1.714844.070312 3.433594.121094 5.15625.121094s3.441406-.050782 5.15625-.121094l24.808594 36.964844c7.683594 11.429687 16.570312 14.820312 22.667969 15.648437 1.238281.167969 2.480469.253906 3.726562.253906 7.601563 0 15.335938-3.09375 22.136719-8.917969.195312-.167968.382812-.347656.5625-.535156l23.816406-25.128906v86.148438h-81.652344c-4.140624 0-7.496093 3.355468-7.496093 7.496093s3.359375 7.496094 7.496093 7.496094h83.253907c6.488281 0 13.386719-5.011719 13.386719-14.300781v-93.5625l44.429687 22.042968zm68.5-19.519531c-.210937 4.578125-1.484375 19.519531-9.175781 19.519531h-44.332032v-153.707031c34.992188 24.390625 56.148438 76.363281 53.507813 134.1875zm0 0"/></svg>