<svg height="512pt" viewBox="-41 0 512 512.00291" width="512pt" xmlns="http://www.w3.org/2000/svg"><path d="m401.089844 2.136719c-.125-.019531-.25-.039063-.371094-.058594-32.753906-4.320313-63.289062-1.878906-88.304688 7.054687-23.328124 8.332032-41.34375 21.902344-52.09375 39.246094-13.371093 21.5625-13.9375 46.164063-1.867187 68.570313l-17.800781 11.90625v-84.332031c0-14.136719-11.507813-25.640626-25.652344-25.640626s-25.652344 11.503907-25.652344 25.640626v84.332031l-17.800781-11.90625c12.066406-22.40625 11.5-47.007813-1.867187-68.570313-10.75-17.34375-28.765626-30.914062-52.09375-39.246094-25.015626-8.933593-55.550782-11.371093-88.300782-7.054687-.125.019531-.25.039063-.371094.058594-21.519531 3.945312-31.101562 16.292969-28.492187 36.707031.015625.128906.035156.257812.058594.382812 4.953125 27.378907 17.855469 53.921876 36.328125 74.738282 17.820312 20.078125 39.496094 33.652344 61.03125 38.21875 5.410156 1.144531 10.683594 1.710937 15.792968 1.710937 19.628907 0 36.777344-8.382812 49.648438-24.429687l26.070312 17.433594v45.839843c-9.832031 4.140625-18.648437 10.601563-25.554687 18.96875-1.050781-.058593-2.105469-.085937-3.160156-.085937-30.457031 0-55.617188 23.085937-58.894531 52.667968-22.285157 4.222657-39.519532 22.3125-42.707032 44.707032h-6.675781c-13.300781 0-24.117187 10.816406-24.117187 24.113281v27.214844c0 12.890625 10.195312 23.449219 22.960937 24.054687l15.570313 92.429688c3.554687 21.050781 19.917968 35.195312 40.71875 35.195312h210.371093c20.800781 0 37.164063-14.144531 40.71875-35.199218l15.578125-92.46875c12.464844-.917969 22.328125-11.332032 22.328125-24.011719v-27.214844c0-13.292969-10.816406-24.109375-24.117187-24.109375h-6.675782c-3.1875-22.40625-20.4375-40.503906-42.734374-44.714844-3.195313-28.800781-27.117188-51.4375-56.46875-52.613281-6.972657-8.425781-15.894532-14.925781-25.835938-19.054687v-45.714844l26.070312-17.433594c12.867188 16.046875 30.011719 24.429688 49.648438 24.429688 5.105469 0 10.378906-.566407 15.789062-1.714844 21.535157-4.566406 43.210938-18.136719 61.03125-38.21875 18.472657-20.8125 31.375-47.355469 36.332032-74.734375.019531-.125.039062-.25.054687-.371094 1.8125-14.039063-1.652343-31.804687-28.492187-36.722656zm-242.09375 106.417969-16.589844-11.09375-2.925781-28.445313c-.425781-4.121094-4.113281-7.117187-8.230469-6.695313-4.117188.425782-7.117188 4.109376-6.691406 8.230469l1.65625 16.082031-22.058594-14.753906-2.253906-22.078125c-.421875-4.121093-4.097656-7.125-8.222656-6.699219-4.121094.421876-7.117188 4.101563-6.699219 8.222657l.992187 9.734375-14.546875-9.726563c-3.441406-2.304687-8.101562-1.378906-10.402343 2.0625-2.300782 3.445313-1.378907 8.101563 2.066406 10.40625l14.046875 9.394531-7.378907 1.988282c-4 1.078125-6.367187 5.195312-5.289062 9.195312.902344 3.34375 3.929688 5.546875 7.238281 5.546875.644531 0 1.300781-.082031 1.957031-.257812l20.027344-5.402344 21.695313 14.507813-13.175781 3.539062c-4 1.074219-6.371094 5.1875-5.300782 9.1875.898438 3.347656 3.929688 5.558594 7.238282 5.558594.644531 0 1.300781-.085938 1.949218-.257813l25.863282-6.941406 16.78125 11.222656c-15.710938 18.773438-35.464844 19.460938-49.792969 16.425781-33.957031-7.195312-75.492188-44.945312-85.675781-100.753906-1.292969-10.40625.984374-16.996094 16.160156-19.828125 68.929687-9.035156 110.023437 14.398438 125.5 39.355469 10.136718 16.351562 10.777344 35.03125 2.0625 52.273438zm45.355468 34.316406c0-.003906 0-.007813 0-.011719v-98.335937c0-5.867188 4.777344-10.640626 10.648438-10.640626 5.875 0 10.652344 4.773438 10.652344 10.640626v98.335937.011719 45.480468c-3.453125-.554687-6.964844-.855468-10.507813-.855468-3.644531 0-7.25.308594-10.792969.894531zm168.019532 181.125c5.027344 0 9.117187 4.085937 9.117187 9.109375v27.214843c0 5.011719-4.089843 9.085938-9.117187 9.085938h-141.800782c-4.144531 0-7.5 3.355469-7.5 7.5 0 4.140625 3.359376 7.5 7.5 7.5h128.363282l-15.144532 89.902344c-1.765624 10.464844-9.617187 22.691406-25.929687 22.691406h-210.371094c-16.308593 0-24.160156-12.226562-25.925781-22.691406l-15.148438-89.902344h129.5c4.140626 0 7.5-3.359375 7.5-7.5 0-4.144531-3.359374-7.5-7.5-7.5h-143.558593c-5.027344 0-9.121094-4.074219-9.121094-9.085938v-27.214843c0-5.023438 4.09375-9.109375 9.121094-9.109375zm-115.605469-100.414063c1.414063 1.925781 3.660156 3.066407 6.046875 3.066407.296875 0 .59375-.007813.890625-.019532.128906-.003906.257813-.007812.386719-.007812 24.390625 0 44.230468 19.84375 44.230468 44.234375v.085937c0 3.964844 3.089844 7.246094 7.046876 7.484375 17.550781 1.0625 31.78125 13.929688 35.117187 30.570313h-276.246094c3.339844-16.640625 17.570313-29.507813 35.121094-30.570313 2.324219-.140625 4.441406-1.398437 5.746094-3.328125.890625-1.316406 1.320312-2.878906 1.273437-4.445312.105469-24.296875 19.917969-44.03125 44.253906-44.03125 1.898438 0 3.78125.121094 5.601563.359375 2.734375.359375 5.453125-.8125 7.066406-3.050781 9.664063-13.421876 25.308594-21.433594 41.84375-21.433594 16.378907 0 31.9375 7.882812 41.621094 21.085937zm157.960937-186.835937c-10.179687 55.8125-51.71875 93.5625-85.675781 100.761718-14.332031 3.039063-34.082031 2.34375-49.796875-16.425781l16.785156-11.222656 25.863282 6.9375c.648437.175781 1.304687.257813 1.945312.257813 3.3125 0 6.339844-2.207032 7.238282-5.554688 1.074218-4.003906-1.296876-8.117188-5.296876-9.1875l-13.179687-3.539062 21.695313-14.507813 20.03125 5.402344c.652343.175781 1.3125.257812 1.957031.257812 3.308593 0 6.332031-2.203125 7.238281-5.546875 1.078125-4-1.292969-8.117187-5.289062-9.195312l-7.382813-1.988282 14.050781-9.398437c3.441406-2.300781 4.367188-6.960937 2.066406-10.402344-2.304687-3.441406-6.960937-4.367187-10.40625-2.066406l-14.527343 9.71875 1.003906-9.714844c.421875-4.121093-2.570313-7.804687-6.691406-8.230469-4.121094-.417968-7.804688 2.570313-8.230469 6.691407l-2.277344 22.085937-22.0625 14.753906 1.65625-16.082031c.425782-4.117187-2.570312-7.804687-6.691406-8.226562-4.132812-.429688-7.804688 2.570312-8.230469 6.691406l-2.929687 28.449219-16.585938 11.089844c-8.714844-17.238282-8.078125-35.921876 2.0625-52.269532 15.472656-24.960937 56.566406-48.390625 125.496094-39.355468 15.203125 2.828124 17.476562 9.414062 16.164062 19.816406zm0 0"/></svg>