<svg height="512pt" viewBox="-48 0 512 512.00001" width="512pt" xmlns="http://www.w3.org/2000/svg"><path d="m133.335938 189.269531c-7.503907 2.570313-13.558594 7.914063-17.042969 15.042969-7.195313 14.6875-1.089844 32.5 13.628906 39.71875 4.210937 2.054688 8.675781 3.015625 13.074219 3 10.949218-.039062 21.484375-6.152344 26.617187-16.621094 7.195313-14.6875 1.085938-32.5-13.613281-39.710937-7.121094-3.492188-15.164062-4-22.664062-1.429688zm22.828124 34.546875c-3.566406 7.277344-12.394531 10.304688-19.660156 6.761719-7.292968-3.574219-10.324218-12.398437-6.757812-19.679687 1.730468-3.539063 4.730468-6.191407 8.445312-7.464844 1.542969-.527344 3.128906-.792969 4.710938-.796875 2.226562-.007813 4.445312.496093 6.503906 1.503906 7.289062 3.578125 10.324219 12.40625 6.757812 19.675781zm0 0"/><path d="m247.140625 115.835938c-5.636719-2.753907-12.007813-3.144532-17.941406-1.105469-5.9375 2.039062-10.722657 6.265625-13.472657 11.90625-5.683593 11.640625-.839843 25.734375 10.777344 31.410156 3.296875 1.621094 6.851563 2.433594 10.421875 2.421875 2.527344-.011719 5.0625-.433594 7.523438-1.277344 5.941406-2.03125 10.734375-6.261718 13.488281-11.90625 5.691406-11.652344.847656-25.761718-10.796875-31.449218 0 .003906 0 .003906 0 0zm-2.660156 24.878906c-.996094 2.042968-2.730469 3.574218-4.878907 4.308594-2.144531.734374-4.453124.585937-6.507812-.425782-4.21875-2.058594-5.972656-7.167968-3.910156-11.394531.996094-2.042969 2.730468-3.574219 4.882812-4.3125.894532-.308594 1.820313-.460937 2.742188-.464844 1.289062-.003906 2.570312.285157 3.761718.867188 4.222657 2.066406 5.976563 7.1875 3.910157 11.421875zm0 0"/><path d="m300.984375 259.140625c3.210937-.015625 6.433594-.554687 9.558594-1.628906 7.5-2.574219 13.539062-7.917969 17.007812-15.027344 3.488281-7.121094 3.996094-15.175781 1.425781-22.675781-2.574218-7.5-7.914062-13.550782-15.046874-17.039063-7.113282-3.488281-15.164063-3.988281-22.667969-1.410156-7.492188 2.574219-13.539063 7.910156-17.035157 15.042969-7.164062 14.691406-1.054687 32.5 13.625 39.699218 4.160157 2.035157 8.636719 3.054688 13.132813 3.039063zm-13.304687-36.160156c1.730468-3.535157 4.734374-6.179688 8.449218-7.460938 1.546875-.53125 3.140625-.796875 4.726563-.804687 2.226562-.007813 4.433593.496094 6.488281 1.503906h.003906c3.539063 1.730469 6.1875 4.730469 7.460938 8.445312 1.273437 3.714844 1.023437 7.699219-.710938 11.238282-1.71875 3.527344-4.710937 6.171875-8.421875 7.445312-3.714843 1.277344-7.707031 1.027344-11.238281-.695312-7.273438-3.570313-10.304688-12.398438-6.757812-19.671875zm0 0"/><path d="m416.496094 218.363281c-.078125-21.246093-10.722656-41.089843-28.21875-53.367187 4.1875-8.757813 6.359375-18.359375 6.320312-28.148438-.066406-17.898437-7.355468-34.621094-20.523437-47.085937-12.203125-11.546875-28.511719-18.195313-45.429688-18.660157-17.929687-41.769531-67.511719-71.296874-120.378906-71.101562-.53125.00390625-1.0625.00390625-1.59375.0078125-52.925781.1953125-102.285156 30.0859375-119.90625 71.9804685-16.921875.59375-33.191406 7.363281-45.320313 19.011719-13.078124 12.5625-20.242187 29.332031-20.175781 47.222656.035157 9.769532 2.285157 19.359375 6.554688 28.101563-17.402344 12.40625-27.902344 32.328125-27.824219 53.574219.0585938 16.222656 6.058594 31.488281 16.988281 43.496093-3.09375 9.386719-4.640625 19.136719-4.605469 29.050781.199219 53.746094 46.800782 97.296876 103.886719 97.085938l66.109375-.242188.066406 17.816407c-21.421874 3.347656-39.3125 11.101562-50.875 22.40625-11.027343-.363281-21.8125 3.515625-30.121093 10.890625-7.621094 6.769531-12.550781 15.980468-14.027344 25.96875-14.878906 3.542968-26.355469 15.605468-29.226563 30.597656l-15.152343.054688c-4.136719.015624-7.476563 3.378906-7.460938 7.515624.015625 4.136719 3.378907 7.476563 7.515625 7.460938l325.152344-1.199219c4.136719-.011719 7.476562-3.378906 7.460938-7.515625-.015626-4.136718-3.378907-7.476562-7.515626-7.457031l-15.152343.054687c-2.976563-14.945312-14.507813-26.910156-29.378907-30.363281-1.324218-9.019531-5.570312-17.375-12.300781-24.007812-7.515625-7.40625-17.503906-11.851563-27.875-12.503907-11.117187-12.15625-31.402343-18.972656-51.109375-21.933593l-.066406-17.96875 34.121094-.128907c4.136718-.011718 7.476562-3.378906 7.460937-7.515624-.015625-4.132813-3.378906-7.476563-7.515625-7.457032l-34.121094.125-.015624-4.550781 24.265624-34.210937c5.789063-8.179688 7.054688-17.296876 3.472657-25.019532-3.433594-7.414062-11.089844-12.675781-19.496094-13.40625-8.351563-.722656-15.949219 2.902344-20.851563 9.957032l-12.511718 18.011718-28.207032-39.949218c-4.585937-6.496094-11.640624-9.808594-19.363281-9.082032-8.597656.804688-16.484375 6.441406-20.09375 14.355469-3.460937 7.582031-2.445312 16.121094 2.777344 23.417969l11.128906 15.589844c2.402344 3.363281 7.078125 4.148437 10.445313 1.742187 3.363281-2.402344 4.144531-7.078125 1.742187-10.445313l-11.132812-15.59375c-2.109375-2.953124-2.558594-5.808593-1.335938-8.496093 1.359375-2.980469 4.667969-5.359375 7.867188-5.660157 2.359375-.230468 4.242187.695313 5.734375 2.808594l34.371094 48.6875c1.410156 1.996094 3.703124 3.175782 6.144531 3.167969 2.445312-.007813 4.726562-1.210937 6.121093-3.214844l18.613282-26.796875c2.28125-3.28125 5.207031-3.75 7.253906-3.578125 3.113281.269531 6.007812 2.191407 7.207031 4.78125 1.644531 3.542969-.238281 7.429688-2.101562 10.0625l-25.65625 36.164063c-.902344 1.273437-1.386719 2.800781-1.378907 4.359375l.140626 38.292969c-.089844-.003907-.179688-.003907-.269532-.011719-.539062-.027344-1.082031-.058594-1.621094-.082031-6.191406-.28125-12.234374-.238282-18.089843.097656l-.144531-38.222656c-.003907-1.550782-.492188-3.0625-1.390626-4.324219l-13.433593-18.804688c-2.402344-3.367187-7.078125-4.148437-10.445313-1.746093-3.363281 2.40625-4.144531 7.082031-1.742187 10.445312l12.042969 16.871094.019531 4.566406-66.109375.242188c-48.828125.179687-88.6875-36.679688-88.855469-82.164063-.039063-9.660156 1.722656-19.136719 5.234375-28.167969 1.101562-2.832031.382812-6.050781-1.820312-8.140625-10.136719-9.632812-15.746094-22.5-15.796876-36.238281-.066406-18.269531 10.082032-35.300781 26.484376-44.453125 1.804687-1.003906 3.109374-2.710937 3.613281-4.710937.503906-2.003907.160156-4.125-.953125-5.863282-5.117188-8-7.84375-17.214844-7.878906-26.648437-.050782-13.757813 5.484374-26.671875 15.578124-36.367188 10.484376-10.070312 24.988282-15.46875 39.742188-14.824219 3.292969.160157 6.296875-1.882812 7.390625-4.996093 13.414063-38.109375 59.671875-66.820313 107.882813-67h.6875c.246093-.003907.480468-.003907.726562-.003907 48.902344-.179687 94.367188 27.578126 108.28125 66.203126 1.117188 3.101562 4.164062 5.117187 7.429688 4.9375 14.738281-.757813 29.269531 4.535156 39.820312 14.519531 10.164062 9.621093 15.792969 22.5 15.84375 36.261719.035156 9.46875-2.613281 18.703124-7.652344 26.707031-1.101562 1.75-1.429687 3.871093-.910156 5.871093.515625 1.996094 1.835938 3.691407 3.648438 4.6875 16.472656 9.027344 26.746093 25.984376 26.8125 44.253907.050781 13.746093-5.472657 26.65625-15.550782 36.347656-2.199218 2.113281-2.894531 5.347656-1.761718 8.175781 3.589843 8.976563 5.429687 18.433594 5.464843 28.113282.167969 45.484374-39.421875 82.636718-88.25 82.816406l-8.265625.03125c-4.136718.015625-7.476562 3.378906-7.460937 7.515625s3.378906 7.476562 7.515625 7.460937l8.265625-.03125c57.085937-.210937 103.367187-44.105468 103.171875-97.847656-.039063-9.933594-1.664063-19.675781-4.839844-29.023438 10.855469-12.074218 16.746094-27.382812 16.683594-43.613281zm-142.605469 222.511719c1.457031 1.964844 3.722656 3.097656 6.222656 3.035156 7.621094-.21875 15.199219 2.8125 20.734375 8.269532 5.429688 5.347656 8.367188 12.371093 8.28125 19.78125-.046875 4.003906 3.066406 7.339843 7.066406 7.5625 10.039063.566406 18.371094 7.308593 21.398438 16.414062l-263.953125.972656c2.960937-9.128906 11.242187-15.929687 21.277344-16.570312 3.957031-.25 7.027343-3.59375 7.011719-7.558594-.027344-8.089844 3.421874-15.8125 9.464843-21.179688 6.066407-5.390624 14.171875-7.914062 22.230469-6.925781 2.441406.300781 4.875-.621093 6.503906-2.457031 9.777344-10.996094 27.855469-18.425781 49.789063-20.996094.292969 0 .589843-.011718.882812-.046875 8-.90625 16.394531-1.15625 24.6875-.753906 2.542969.125 5.082031.316406 7.617188.566406 23.621093 2.355469 43.472656 9.996094 50.785156 19.886719 1.457031 1.964844-7.3125-9.890625 0 0zm0 0"/></svg>