<svg height="511pt" viewBox="-28 0 511 511.998" width="511pt" xmlns="http://www.w3.org/2000/svg"><path d="m284.816406 125.535156c0-32.207031-26.222656-58.410156-58.453125-58.410156s-58.449219 26.203125-58.449219 58.410156c0 32.207032 26.222657 58.410156 58.449219 58.410156 32.230469 0 58.453125-26.203124 58.453125-58.410156zm-101.902344 0c0-23.9375 19.492188-43.410156 43.449219-43.410156s43.449219 19.472656 43.449219 43.410156-19.488281 43.410156-43.449219 43.410156c-23.957031 0-43.449219-19.472656-43.449219-43.410156zm0 0"/><path d="m425.765625 222.730469c-.125-.023438-.253906-.042969-.382813-.0625-35.308593-4.640625-68.214843-2.007813-95.15625 7.617187-25.082031 8.960938-44.4375 23.539063-55.976562 42.160156-14.398438 23.242188-14.910156 49.78125-1.722656 73.910157l-20.648438 13.800781v-46.769531c0-4.140625-3.355468-7.5-7.5-7.5-4.140625 0-7.5 3.359375-7.5 7.5v60.753906.042969 19.582031c-2.675781-.382813-5.390625-.601563-8.128906-.601563-2.914062 0-5.796875.242188-8.640625.671876v-19.652344c0-.015625 0-.027344 0-.042969v-147.265625c2.890625-1.683594 5.660156-3.601562 8.273437-5.761719 2.683594 2.21875 5.527344 4.183594 8.496094 5.898438v51.765625c0 4.140625 3.359375 7.5 7.5 7.5 4.144532 0 7.5-3.359375 7.5-7.5v-45.601563c5.09375 1.332031 10.398438 2.019531 15.820313 2.019531 34.136719 0 61.910156-27.753906 61.910156-61.867187 0-8-1.558594-15.929687-4.539063-23.273437 15.125-11.683594 23.972657-29.515626 23.972657-48.898438 0-34.113281-27.773438-61.867188-61.914063-61.867188-.363281 0-.726562 0-1.085937.007813-9.183594-23.414063-32.082031-39.296875-57.664063-39.296875-25.296875 0-47.550781 15.007812-57.113281 37.914062-.472656-.007812-.941406-.015624-1.410156-.015624-34.136719 0-61.910157 27.753906-61.910157 61.871093 0 19.214844 9.140626 37.457031 24.242188 49.097657-3.308594 7.691406-5.035156 16.027343-5.035156 24.460937 0 34.113281 27.769531 61.867187 61.910156 61.867187 5.5 0 10.882812-.710937 16.042969-2.082031v127.042969l-20.648438-13.804688c13.1875-24.125 12.679688-50.664062-1.71875-73.90625-11.539062-18.621093-30.894531-33.199218-55.980469-42.160156-26.941406-9.628906-59.84375-12.261718-95.152343-7.617187-.128907.015625-.257813.035156-.386719.0625-22.863281 4.222656-33.046875 17.34375-30.273438 39 .015626.125.035157.253906.058594.382812 5.335938 29.464844 19.226563 58.027344 39.113282 80.429688 19.164062 21.59375 42.46875 36.1875 65.613281 41.09375 5.796875 1.230469 11.445312 1.835937 16.917969 1.835937 21.210937 0 39.710937-9.136718 53.542968-26.605468l28.917969 19.332031v20.046875c-7.929687 3.546875-15.058594 8.84375-20.746094 15.597656-.738281-.027344-1.480469-.042969-2.222656-.042969-26.273437 0-48.03125 19.683594-51.277344 45.136719-18.835937 3.882812-33.398437 19.125-36.484375 38.058594h-27.585937c-4.140625 0-7.5 3.359375-7.5 7.5 0 4.144531 3.359375 7.5 7.5 7.5h319.144531c4.144531 0 7.5-3.355469 7.5-7.5 0-4.140625-3.359375-7.5-7.5-7.5h-27.582031c-3.082031-18.929688-17.628907-34.171875-36.445313-38.054688-3.117187-24.582031-23.597656-43.839844-48.738281-45.078125-5.816406-6.902343-13.148437-12.28125-21.292969-15.835937v-19.832032l28.917969-19.328124c13.832031 17.46875 32.328125 26.605468 53.542969 26.605468 5.46875 0 11.125-.609375 16.917968-1.835937 23.144532-4.90625 46.449219-19.5 65.613282-41.09375 19.886718-22.402344 33.777344-50.96875 39.113281-80.429688.023437-.128906.042969-.257812.058594-.386719 2.773437-21.652343-7.414063-34.773437-30.277344-38.996093zm-283.613281-49.402344c0-8.15625 2.128906-16.1875 6.15625-23.234375 2.023437-3.535156.855468-8.039062-2.632813-10.144531-14.019531-8.464844-22.730469-23.863281-22.730469-40.179688 0-25.84375 21.042969-46.871093 46.910157-46.871093 1.835937 0 3.730469.117187 5.628906.34375 3.59375.433593 6.988281-1.769532 8.058594-5.230469 6.109375-19.746094 24.125-33.011719 44.835937-33.011719 20.957032 0 39.53125 14.058594 45.171875 34.179688 1 3.570312 4.460938 5.875 8.140625 5.421874 1.683594-.207031 3.515625-.3125 5.4375-.3125 25.867188 0 46.910156 21.023438 46.910156 46.867188 0 16.398438-8.371093 31.335938-22.386718 39.957031-3.394532 2.089844-4.5625 6.464844-2.664063 9.96875 3.726563 6.863281 5.617188 14.347657 5.617188 22.242188 0 25.84375-21.042969 46.871093-46.910157 46.871093-6.964843 0-13.667968-1.511718-19.777343-4.355468-.25-.136719-.511719-.253906-.78125-.359375-4.917969-2.402344-9.425781-5.691407-13.339844-9.78125-1.414063-1.476563-3.375-2.3125-5.417969-2.3125-2.046875 0-4.003906.835937-5.421875 2.3125-8.941406 9.347656-20.980469 14.496093-33.898437 14.496093-25.863282 0-46.90625-21.023437-46.90625-46.867187zm-33.316406 195.632813c-36.878907-7.816407-81.988282-48.78125-93.039063-109.324219-1.410156-11.3125 1.152344-18.960938 17.960937-22.121094 74.808594-9.785156 119.414063 15.703125 136.226563 42.832031 11.171875 18.03125 11.757813 38.652344 1.929687 57.621094l-18.703124-12.5-3.210938-31.023438c-.429688-4.121093-4.113281-7.109374-8.234375-6.6875-4.121094.425782-7.117187 4.113282-6.6875 8.234376l1.929687 18.648437-25.128906-16.800781-2.503906-24.144532c-.425781-4.121093-4.117188-7.117187-8.234375-6.6875-4.121094.429688-7.113281 4.113282-6.6875 8.234376l1.21875 11.769531-16.765625-11.210938c-3.445312-2.304687-8.105469-1.375-10.40625 2.066407-2.300781 3.445312-1.375 8.101562 2.070312 10.40625l16.28125 10.882812-9.238281 2.480469c-4 1.074219-6.375 5.1875-5.296875 9.1875.898438 3.351562 3.925782 5.558593 7.238282 5.558593.644531 0 1.296874-.082031 1.949218-.257812l21.921875-5.890625 24.738281 16.535156-15.519531 4.179688c-4 1.074219-6.371093 5.191406-5.292969 9.191406.898438 3.347656 3.929688 5.550781 7.238282 5.550781.644531 0 1.300781-.082031 1.953125-.257812l28.191406-7.589844 18.929687 12.65625c-17.230468 21.015625-39.042968 21.808594-54.828124 18.460938zm154.605468 56.785156c1.414063 1.921875 3.65625 3.058594 6.042969 3.058594h1.105469c20.25 0 36.726562 16.445312 36.726562 36.664062v.082031c0 3.96875 3.09375 7.253907 7.054688 7.488281 14.023437.835938 25.480468 10.832032 28.695312 23.960938h-233.402344c3.21875-13.128906 14.6875-23.125 28.722657-23.960938 3.964843-.234374 7.054687-3.601562 7.054687-7.570312 0-20.21875 16.460938-36.664062 36.695313-36.664062 1.632812 0 3.179687.089843 4.730469.28125 2.71875.335937 5.398437-.835938 7-3.054688 8.070312-11.1875 21.109374-17.867188 34.878906-17.867188 13.632812.003907 26.601562 6.574219 34.695312 17.582032zm177.746094-166.113282c-11.050781 60.542969-56.160156 101.511719-93.039062 109.328126-15.785157 3.34375-37.597657 2.554687-54.828126-18.460938l18.929688-12.65625 28.191406 7.589844c.652344.175781 1.308594.257812 1.953125.257812 3.308594 0 6.335938-2.203125 7.238281-5.550781 1.078126-4-1.292968-8.117187-5.292968-9.191406l-15.519532-4.179688 24.738282-16.535156 21.949218 5.890625c.652344.175781 1.308594.257812 1.949219.257812 3.3125 0 6.34375-2.210937 7.242188-5.558593 1.074219-4.003907-1.300781-8.117188-5.300781-9.1875l-9.261719-2.484375 16.277343-10.882813c3.445313-2.300781 4.371094-6.957031 2.070313-10.402343-2.300781-3.445313-6.960937-4.371094-10.40625-2.066407l-16.765625 11.207031 1.21875-11.769531c.425781-4.121093-2.566406-7.804687-6.6875-8.230469-4.121094-.429687-7.804688 2.566407-8.234375 6.683594l-2.5 24.148438-25.117187 16.785156 1.917968-18.640625c.421875-4.121094-2.574218-7.804687-6.695312-8.230469-4.128906-.425781-7.804688 2.574219-8.230469 6.695313l-3.183594 31-18.730469 12.519531c-9.828124-18.972656-9.242187-39.59375 1.929688-57.625 16.8125-27.128906 61.417969-52.613281 136.226562-42.828125 16.808594 3.15625 19.371094 10.808594 17.960938 22.117187zm0 0"/></svg>