<svg height="511pt" viewBox="1 0 511.99889 511" width="511pt" xmlns="http://www.w3.org/2000/svg"><path d="m505.453125 83.644531-76.765625-76.632812c-8.738281-8.683594-22.960938-8.6875-31.714844.011719l-32.457031 32.402343c-9.894531 9.875-15.34375 23.050781-15.34375 37.097657 0 13.195312 4.808594 25.617187 13.589844 35.261718l-156.929688 156.6875-20.28125-20.246094c-8.199219-8.1875-21.539062-8.1875-29.738281 0l-7.632812 7.617188-1.871094-1.863281c-15.769532-15.746094-30.550782-17.335938-40.167969-15.894531-17.183594 2.566406-30.105469 16.246093-36.503906 28.261718l-58.378907 112.363282c-9.726562 18.710937-13.175781 37.28125-10.25 55.1875 2.925782 17.921874 12.179688 34.785156 27.515626 50.140624 15.363281 15.292969 32.253906 24.527344 50.199218 27.449219 4.121094.671875 8.273438 1.003907 12.460938 1.003907 14.019531 0 28.367187-3.757813 42.796875-11.234376l112.628906-58.316406c11.972656-6.355468 25.683594-19.265625 28.246094-36.4375 1.433593-9.609375-.164063-24.363281-15.929688-40.101562l-1.851562-1.847656 7.617187-7.601563c3.960938-3.953125 6.140625-9.230469 6.140625-14.863281 0-5.628906-2.179687-10.910156-6.140625-14.863282l-20.265625-20.226562 66.035157-65.898438c2.933593-2.925781 2.941406-7.675781.011718-10.613281-2.925781-2.933593-7.679687-2.9375-10.613281-.007812l-66.054687 65.914062-17.351563-17.320312 156.882813-156.640625 17.378906 17.347656-64.929688 64.816406c-2.933594 2.929688-2.9375 7.679688-.011718 10.613282 1.46875 1.46875 3.390624 2.203124 5.3125 2.203124 1.917968 0 3.835937-.730468 5.300781-2.191406l65.054687-64.941406c9.835938 8.527344 22.113282 12.804688 34.394532 12.804688 13.449218 0 26.894531-5.109376 37.132812-15.328126l32.484375-32.429687c4.222656-4.214844 6.546875-9.839844 6.546875-15.839844 0-6.003906-2.324219-11.628906-6.546875-15.84375zm-251.367187 254.203125c1.121093 1.121094 1.738281 2.625 1.738281 4.242188 0 1.617187-.617188 3.125-1.738281 4.242187l-7.632813 7.621094-30.972656-30.921875c-2.929688-2.925781-7.683594-2.925781-10.613281.011719-2.925782 2.929687-2.921876 7.683593.011718 10.609375l35.992188 35.933594c.085937.097656.167968.195312.257812.285156.097656.097656.203125.183594.304688.277344l6.890625 6.875c9.101562 9.085937 13.035156 18.257812 11.6875 27.265624-1.738281 11.648438-11.699219 20.757813-20.371094 25.363282l-112.5625 58.28125c-32.019531 16.585937-61.617187 11.699218-87.953125-14.511719-26.261719-26.296875-31.15625-55.832031-14.550781-87.789063l58.34375-112.296874c4.648437-8.722657 13.769531-18.664063 25.441406-20.40625 9.035156-1.351563 18.234375 2.578124 27.347656 11.671874l6.890625 6.878907c.085938.09375.164063.191406.253906.285156.097657.097656.203126.183594.304688.277344l34.660156 34.597656c2.929688 2.925781 7.683594 2.925781 10.613282-.007813 2.925781-2.933593 2.921874-7.683593-.011719-10.613281l-29.617188-29.570312 7.613281-7.601563c2.3125-2.308594 6.222657-2.308594 8.535157 0zm240.761718-233.140625-32.484375 32.425781c-14.628906 14.605469-38.429687 14.605469-53.058593 0l-2.65625-2.652343c-.003907-.003907-.003907-.003907-.003907-.003907l-27.992187-27.945312c-.003906 0-.003906-.003906-.003906-.003906s-.003907 0-.003907-.003906l-3.527343-3.519532c-7.050782-7.039062-10.933594-16.445312-10.933594-26.480468 0-10.03125 3.882812-19.4375 10.933594-26.476563l32.445312-32.386719c2.910156-2.890625 7.640625-2.890625 10.535156-.015625l76.753906 76.621094c1.378907 1.378906 2.140626 3.234375 2.140626 5.222656 0 1.984375-.761719 3.839844-2.144532 5.21875zm0 0"/><path d="m425.550781 47.191406c-5.265625-5.253906-13.832031-5.253906-19.101562.003906l-13.027344 13.035157c-4.828125 4.816406-7.484375 11.238281-7.484375 18.082031 0 6.839844 2.65625 13.261719 7.484375 18.078125l23.605469 23.597656c4.988281 4.957031 11.539062 7.4375 18.09375 7.4375 6.558594 0 13.121094-2.484375 18.117187-7.453125l13.03125-13.035156c5.242188-5.234375 5.253907-13.785156 0-19.097656zm17.089844 62.152344c-4.144531 4.121094-10.886719 4.121094-15.015625.015625l-23.597656-23.585937s0 0 0-.003907c-1.988282-1.980469-3.082032-4.628906-3.082032-7.457031s1.09375-5.476562 3.085938-7.464844l11.972656-11.976562 38.585938 38.519531zm0 0"/></svg>